<?xml version="1.0" encoding="utf-8"?>
<!-- Generator: Adobe Illustrator 21.0.2, SVG Export Plug-In . SVG Version: 6.00 Build 0)  -->
<svg version="1.1" id="Layer_1" xmlns="http://www.w3.org/2000/svg" xmlns:xlink="http://www.w3.org/1999/xlink" x="0px" y="0px"
	 viewBox="0 0 735.6 422.5" style="enable-background:new 0 0 735.6 422.5;" xml:space="preserve">
<style type="text/css">
	.st0{fill-rule:evenodd;clip-rule:evenodd;fill:#FFFFFF;}
	.st1{fill-rule:evenodd;clip-rule:evenodd;fill:#FFFFFF;stroke:#FFFFFF;stroke-width:0.216;stroke-miterlimit:10;}
	.st2{fill-rule:evenodd;clip-rule:evenodd;fill:#FFFFFF;stroke:#FFFFFF;stroke-miterlimit:10;}
</style>
<g>
	<g>
		<polygon class="st0" points="369.6,0 461.3,52.8 461.3,247.6 369.7,300.7 		"/>
		<polygon class="st0" points="475.7,61.1 735.6,211.2 644.2,264.1 475.7,166.4 		"/>
		<polygon class="st0" points="629.8,272.2 369.7,422.5 369.7,316.5 539,219.5 		"/>
	</g>
	<g>
		<path class="st1" d="M75,201.7H52.3c-0.6-7.7-5.4-11.5-14.7-11.5c-9.7,0-14.7,9.1-14.7,27.4c0,17.3,5,25.9,14.7,25.9
			c9.4,0,14.3-4,14.7-12H75v0.5c0,9.3-3.9,16.3-11.5,21.1c-6.6,4.2-15.2,6.3-25.9,6.3c-12.1,0-21.3-3.7-27.7-11.1
			c-6.4-7.3-9.6-17.8-9.6-31.5c0-13.6,3.2-24.1,9.6-31.4c6.4-7.2,15.7-10.8,27.8-10.9h0.6c10.4,0,18.8,2,25.3,5.9
			C71.1,185,75,192,75,201.2V201.7z"/>
		<polygon class="st1" points="128,204.5 147.7,204.5 117,282.8 97.4,282.8 105.3,262.9 81.8,204.5 104.6,204.5 115.9,243.9 		"/>
		<g>
			<path class="st2" d="M194,258.5l-0.6-8.4H193c-1.4,3.4-4,5.9-7.6,7.6c-0.8,0.4-1.6,0.8-2.4,1.2v-11.1c7,0,10.4-5.8,10.4-17.6
				c0-11.7-3.5-17.6-10.4-17.6v-11.2c4.3,1.2,7.8,3.7,10.4,7.3V177h21.3v81.5H194z M182.9,258.8c-2.6,0.9-5.5,1.4-8.7,1.4
				c-7.6,0-13.5-3.2-17.9-9.6c-3.8-5.7-5.7-12.4-5.7-20.2c0-8.4,1.9-15.3,5.8-20.7c4.3-6.3,10.5-9.5,18.4-9.5c3,0,5.6,0.4,8.1,1.1
				v11.2c-7,0-10.4,5.9-10.4,17.6c0,11.8,3.5,17.6,10.4,17.6V258.8z"/>
			<path class="st1" d="M194,258.5l-0.6-8.4H193c-1.4,3.4-4,5.9-7.6,7.6c-3.2,1.7-6.9,2.5-11.2,2.5c-7.6,0-13.5-3.2-17.9-9.6
				c-3.8-5.7-5.7-12.4-5.7-20.2c0-8.4,1.9-15.3,5.8-20.7c4.3-6.3,10.5-9.5,18.4-9.5c8.2,0,14.4,2.7,18.5,8.4V177h21.3v81.5H194
				L194,258.5z M182.9,212.5c-7,0-10.4,5.9-10.4,17.6c0,11.8,3.5,17.6,10.4,17.6c7,0,10.4-5.8,10.4-17.6
				C193.4,218.4,189.9,212.5,182.9,212.5z"/>
		</g>
		<path class="st1" d="M279.7,219.3h-20.2c0-4.5-2.4-6.8-7.1-6.8c-3.4,0-5,1.7-5,5c0,1.7,1.9,3,5.9,4.1c5.4,1.4,10.8,2.7,16.1,4.1
			c7.6,2.4,11.3,7.6,11.3,15.6c0,12.6-9,18.9-26.9,18.9c-8.3,0-14.5-1.2-18.7-3.6c-5.6-3.1-8.4-8.6-8.4-16.5h20.2
			c-0.1,0.4-0.1,0.7-0.1,1.2c0,1.4,0.6,2.7,1.7,4c1.4,1.7,3,2.5,4.9,2.5c4.8,0,7.2-1.8,7.2-5.3c0-2.5-2.9-4.6-8.6-6.3
			c-9-2.4-14.3-4.1-16.1-5c-5.8-3-8.6-7.4-8.6-13.3c0-6.3,3-11,8.9-14.2c4.6-2.4,10.3-3.6,17.2-3.6
			C270.1,200.2,278.9,206.6,279.7,219.3z"/>
		<g>
			<path class="st2" d="M317.7,247.1c3.4-0.4,5.8-2.2,7.1-5.3c1.1-2.4,1.6-6,1.6-10.9c-3.7,0-6.6,0.1-8.6,0.4v-10
				c0.6-0.1,1.3-0.1,1.9-0.1h6.7c0-4.2-0.1-6.9-0.6-7.9c-0.8-2.6-2.9-3.9-6.3-3.9H319c-0.4,0.1-0.8,0.1-1.2,0.1v-10
				c1.2,0,2.4-0.1,3.6-0.1c6.6,0,12.2,1.4,16.8,4.1c5.4,3.2,8.1,7.6,8.1,13.5v29.2c0,0.7,0.4,4.5,1.2,11.7h-20.4
				c-0.3-1.2-0.5-3.8-0.6-7.7c-2.3,3.6-5.2,6.1-8.8,7.6V247.1z M309.1,239.7c0,2,0.7,3.8,2.2,5.2c1.4,1.5,3.2,2.3,5.2,2.3
				c0.4,0,0.9,0,1.3-0.1v10.7c-2.7,1.2-5.8,1.8-9.1,1.8c-6.6,0-11.7-1.7-15-5.1c-3.4-3.3-5-7.7-5-13.3v-0.5
				c0.2-12.6,10-19,29.2-19.4v10c-1.4,0.2-2.4,0.5-3,0.8C311,234,309.1,236.5,309.1,239.7L309.1,239.7z M317.7,199.6v10
				c-1.7,0.4-3.1,1.4-4.1,3c-0.9,1.6-1.4,3.2-1.4,5.1v0.4l-20.1-0.2C292.2,206.5,300.7,200.3,317.7,199.6z"/>
			<path class="st1" d="M309.1,239.7c0,2,0.7,3.8,2.2,5.2c1.4,1.5,3.2,2.3,5.2,2.3c4,0,6.8-1.8,8.4-5.3c1.1-2.4,1.6-6,1.6-10.9
				c-6.1,0-9.9,0.4-11.7,1.2C311,234,309.1,236.5,309.1,239.7L309.1,239.7z M347.5,257.9h-20.4c-0.3-1.2-0.5-3.8-0.6-7.7
				c-4,6.3-10,9.4-17.9,9.4c-6.6,0-11.7-1.7-15-5.1c-3.4-3.3-5-7.7-5-13.3v-0.5c0.2-13,10.7-19.4,31.2-19.4h6.7
				c0-4.2-0.1-6.9-0.6-7.9c-0.8-2.6-2.9-3.9-6.3-3.9H319c-2.3,0.1-4,1.2-5.3,3.1c-0.9,1.6-1.4,3.2-1.4,5.1v0.4l-20.1-0.2
				c0-12.2,9.7-18.4,29.2-18.4c6.6,0,12.2,1.4,16.8,4.1c5.4,3.2,8.1,7.6,8.1,13.5v29.2C346.3,247,346.7,250.8,347.5,257.9z"/>
		</g>
	</g>
</g>
</svg>
