<?xml version="1.0" encoding="UTF-8"?>
<svg id="Layer_1" data-name="Layer 1" xmlns="http://www.w3.org/2000/svg" viewBox="0 0 735.6 422.5">
  <defs>
    <style>
      .cls-1, .cls-2, .cls-3 {
        fill-rule: evenodd;
      }

      .cls-2 {
        stroke-width: .22px;
      }

      .cls-2, .cls-3 {
        stroke: #fff;
        stroke-miterlimit: 10;
      }
    </style>
  </defs>
  <g>
    <polygon class="cls-1" points="369.6 0 461.3 52.8 461.3 247.6 369.7 300.7 369.6 0"/>
    <polygon class="cls-1" points="475.7 61.1 735.6 211.2 644.2 264.1 475.7 166.4 475.7 61.1"/>
    <polygon class="cls-1" points="629.8 272.2 369.7 422.5 369.7 316.5 539 219.5 629.8 272.2"/>
  </g>
  <g>
    <path class="cls-2" d="M75,201.7h-22.7c-.6-7.7-5.4-11.5-14.7-11.5s-14.7,9.1-14.7,27.4c0,17.3,5,25.9,14.7,25.9s14.3-4,14.7-12h22.7v.5c0,9.3-3.9,16.3-11.5,21.1-6.6,4.2-15.2,6.3-25.9,6.3-12.1,0-21.3-3.7-27.7-11.1-6.4-7.3-9.6-17.8-9.6-31.5s3.2-24.1,9.6-31.4c6.4-7.2,15.7-10.8,27.8-10.9h.6c10.4,0,18.8,2,25.3,5.9,7.5,4.6,11.4,11.6,11.4,20.8v.5Z"/>
    <polygon class="cls-2" points="128 204.5 147.7 204.5 117 282.8 97.4 282.8 105.3 262.9 81.8 204.5 104.6 204.5 115.9 243.9 128 204.5"/>
    <g>
      <path class="cls-3" d="M194,258.5l-.6-8.4h-.4c-1.4,3.4-4,5.9-7.6,7.6-.8.4-1.6.8-2.4,1.2v-11.1c7,0,10.4-5.8,10.4-17.6s-3.5-17.6-10.4-17.6v-11.2c4.3,1.2,7.8,3.7,10.4,7.3v-31.7h21.3v81.5h-20.7ZM182.9,258.8c-2.6.9-5.5,1.4-8.7,1.4-7.6,0-13.5-3.2-17.9-9.6-3.8-5.7-5.7-12.4-5.7-20.2,0-8.4,1.9-15.3,5.8-20.7,4.3-6.3,10.5-9.5,18.4-9.5,3,0,5.6.4,8.1,1.1v11.2c-7,0-10.4,5.9-10.4,17.6s3.5,17.6,10.4,17.6v11.1h0Z"/>
      <path class="cls-2" d="M194,258.5l-.6-8.4h-.4c-1.4,3.4-4,5.9-7.6,7.6-3.2,1.7-6.9,2.5-11.2,2.5-7.6,0-13.5-3.2-17.9-9.6-3.8-5.7-5.7-12.4-5.7-20.2,0-8.4,1.9-15.3,5.8-20.7,4.3-6.3,10.5-9.5,18.4-9.5s14.4,2.7,18.5,8.4v-31.6h21.3v81.5h-20.6ZM182.9,212.5c-7,0-10.4,5.9-10.4,17.6s3.5,17.6,10.4,17.6,10.4-5.8,10.4-17.6c.1-11.7-3.4-17.6-10.4-17.6Z"/>
    </g>
    <path class="cls-2" d="M279.7,219.3h-20.2c0-4.5-2.4-6.8-7.1-6.8-3.4,0-5,1.7-5,5,0,1.7,1.9,3,5.9,4.1,5.4,1.4,10.8,2.7,16.1,4.1,7.6,2.4,11.3,7.6,11.3,15.6,0,12.6-9,18.9-26.9,18.9-8.3,0-14.5-1.2-18.7-3.6-5.6-3.1-8.4-8.6-8.4-16.5h20.2c-.1.4-.1.7-.1,1.2,0,1.4.6,2.7,1.7,4,1.4,1.7,3,2.5,4.9,2.5,4.8,0,7.2-1.8,7.2-5.3,0-2.5-2.9-4.6-8.6-6.3-9-2.4-14.3-4.1-16.1-5-5.8-3-8.6-7.4-8.6-13.3,0-6.3,3-11,8.9-14.2,4.6-2.4,10.3-3.6,17.2-3.6,16.7.1,25.5,6.5,26.3,19.2Z"/>
    <g>
      <path class="cls-3" d="M317.7,247.1c3.4-.4,5.8-2.2,7.1-5.3,1.1-2.4,1.6-6,1.6-10.9-3.7,0-6.6.1-8.6.4v-10c.6-.1,1.3-.1,1.9-.1h6.7c0-4.2-.1-6.9-.6-7.9-.8-2.6-2.9-3.9-6.3-3.9h-.5c-.4.1-.8.1-1.2.1v-10c1.2,0,2.4-.1,3.6-.1,6.6,0,12.2,1.4,16.8,4.1,5.4,3.2,8.1,7.6,8.1,13.5v29.2c0,.7.4,4.5,1.2,11.7h-20.4c-.3-1.2-.5-3.8-.6-7.7-2.3,3.6-5.2,6.1-8.8,7.6v-10.7ZM309.1,239.7c0,2,.7,3.8,2.2,5.2,1.4,1.5,3.2,2.3,5.2,2.3.4,0,.9,0,1.3-.1v10.7c-2.7,1.2-5.8,1.8-9.1,1.8-6.6,0-11.7-1.7-15-5.1-3.4-3.3-5-7.7-5-13.3v-.5c.2-12.6,10-19,29.2-19.4v10c-1.4.2-2.4.5-3,.8-3.9,1.9-5.8,4.4-5.8,7.6h0ZM317.7,199.6v10c-1.7.4-3.1,1.4-4.1,3-.9,1.6-1.4,3.2-1.4,5.1v.4l-20.1-.2c.1-11.4,8.6-17.6,25.6-18.3Z"/>
      <path class="cls-2" d="M309.1,239.7c0,2,.7,3.8,2.2,5.2,1.4,1.5,3.2,2.3,5.2,2.3,4,0,6.8-1.8,8.4-5.3,1.1-2.4,1.6-6,1.6-10.9-6.1,0-9.9.4-11.7,1.2-3.8,1.8-5.7,4.3-5.7,7.5h0ZM347.5,257.9h-20.4c-.3-1.2-.5-3.8-.6-7.7-4,6.3-10,9.4-17.9,9.4-6.6,0-11.7-1.7-15-5.1-3.4-3.3-5-7.7-5-13.3v-.5c.2-13,10.7-19.4,31.2-19.4h6.7c0-4.2-.1-6.9-.6-7.9-.8-2.6-2.9-3.9-6.3-3.9h-.6c-2.3.1-4,1.2-5.3,3.1-.9,1.6-1.4,3.2-1.4,5.1v.4l-20.1-.2c0-12.2,9.7-18.4,29.2-18.4,6.6,0,12.2,1.4,16.8,4.1,5.4,3.2,8.1,7.6,8.1,13.5v29.2c0,.7.4,4.5,1.2,11.6Z"/>
    </g>
  </g>
</svg>