{
  "accessors": [
    {
      "bufferView": 2,
      "componentType": 5126,
      "count": 4708,
      "max": [
        0.6329406499862671,
        0.6407195925712585,
        0.5823419094085693
      ],
      "min": [
        -0.6259328722953796,
        -0.5975455641746521,
        -0.00039560382720083
      ],
      "type": "VEC3"
    },
    {
      "bufferView": 2,
      "byteOffset": 56496,
      "componentType": 5126,
      "count": 4708,
      "max": [
        0.9992004036903381,
        0.9990772604942322,
        0.9997996687889099
      ],
      "min": [
        -0.9938703179359436,
        -0.9988604784011841,
        -0.9985954165458679
      ],
      "type": "VEC3"
    },
    {
      "bufferView": 3,
      "componentType": 5126,
      "count": 4708,
      "max": [
        0.9985100626945496,
        0.9999489188194275,
        0.9997366070747375,
        1.0
      ],
      "min": [
        -0.9997209906578064,
        -0.9983826875686646,
        -0.9998251795768738,
        -1.0
      ],
      "type": "VEC4"
    },
    {
      "bufferView": 1,
      "componentType": 5126,
      "count": 4708,
      "max": [
        0.9999999403953552,
        1.0
      ],
      "min": [
        0.0,
        0.0
      ],
      "type": "VEC2"
    },
    {
      "bufferView": 0,
      "componentType": 5125,
      "count": 12204,
      "type": "SCALAR"
    }
  ],
  "asset": {
    "extras": {
      "author": "ArnoldE (https://sketchfab.com/arnoldescorcia906)",
      "license": "CC-BY-4.0 (http://creativecommons.org/licenses/by/4.0/)",
      "source": "https://sketchfab.com/3d-models/puff-clasic-puff-clasico-a77f888bac654f8191442e74f0db4e7a",
      "title": "Puff Clasic - puff  clásico"
    },
    "generator": "Sketchfab-12.66.0",
    "version": "2.0"
  },
  "bufferViews": [
    {
      "buffer": 0,
      "byteLength": 48816,
      "name": "floatBufferViews",
      "target": 34963
    },
    {
      "buffer": 0,
      "byteLength": 37664,
      "byteOffset": 48816,
      "byteStride": 8,
      "name": "floatBufferViews",
      "target": 34962
    },
    {
      "buffer": 0,
      "byteLength": 112992,
      "byteOffset": 86480,
      "byteStride": 12,
      "name": "floatBufferViews",
      "target": 34962
    },
    {
      "buffer": 0,
      "byteLength": 75328,
      "byteOffset": 199472,
      "byteStride": 16,
      "name": "floatBufferViews",
      "target": 34962
    }
  ],
  "buffers": [
    {
      "byteLength": 274800,
      "uri": "scene.bin"
    }
  ],
  "images": [
    {
      "uri": "textures/MOD_PUFF_LOW_baseColor.jpeg"
    },
    {
      "uri": "textures/MOD_PUFF_LOW_metallicRoughness.png"
    },
    {
      "uri": "textures/MOD_PUFF_LOW_normal.png"
    }
  ],
  "materials": [
    {
      "doubleSided": true,
      "name": "MOD_PUFF_LOW",
      "normalTexture": {
        "index": 2
      },
      "occlusionTexture": {
        "index": 3
      },
      "pbrMetallicRoughness": {
        "baseColorTexture": {
          "index": 0
        },
        "metallicFactor": 0.0,
        "metallicRoughnessTexture": {
          "index": 1
        }
      }
    }
  ],
  "meshes": [
    {
      "name": "MOD_PUFF_LOW_MOD_PUFF_LOW_0",
      "primitives": [
        {
          "attributes": {
            "NORMAL": 1,
            "POSITION": 0,
            "TANGENT": 2,
            "TEXCOORD_0": 3
          },
          "indices": 4,
          "material": 0,
          "mode": 4
        }
      ]
    }
  ],
  "nodes": [
    {
      "children": [
        1
      ],
      "matrix": [
        1.0,
        0.0,
        0.0,
        0.0,
        0.0,
        2.220446049250313e-16,
        -1.0,
        0.0,
        0.0,
        1.0,
        2.220446049250313e-16,
        0.0,
        0.0,
        0.0,
        0.0,
        1.0
      ],
      "name": "Sketchfab_model"
    },
    {
      "children": [
        2
      ],
      "matrix": [
        1.0,
        0.0,
        0.0,
        0.0,
        0.0,
        0.0,
        1.0,
        0.0,
        0.0,
        -1.0,
        0.0,
        0.0,
        0.0,
        0.0,
        0.0,
        1.0
      ],
      "name": "97f00a75b02541bda216f02cc6d06b59.fbx"
    },
    {
      "children": [
        3
      ],
      "name": "RootNode"
    },
    {
      "children": [
        4
      ],
      "matrix": [
        100.0,
        0.0,
        0.0,
        0.0,
        0.0,
        -1.629206793918314e-05,
        -99.99999999999868,
        0.0,
        0.0,
        99.99999999999868,
        -1.629206793918314e-05,
        0.0,
        0.0,
        4.76837158203125e-05,
        -2.2737367544323206e-11,
        1.0
      ],
      "name": "MOD_PUFF_LOW"
    },
    {
      "mesh": 0,
      "name": "MOD_PUFF_LOW_MOD_PUFF_LOW_0"
    }
  ],
  "samplers": [
    {
      "magFilter": 9729,
      "minFilter": 9729,
      "wrapS": 10497,
      "wrapT": 10497
    },
    {
      "magFilter": 9729,
      "minFilter": 9987,
      "wrapS": 10497,
      "wrapT": 10497
    },
    {
      "magFilter": 9728,
      "minFilter": 9986,
      "wrapS": 10497,
      "wrapT": 10497
    }
  ],
  "scene": 0,
  "scenes": [
    {
      "name": "Sketchfab_Scene",
      "nodes": [
        0
      ]
    }
  ],
  "textures": [
    {
      "sampler": 0,
      "source": 0
    },
    {
      "sampler": 0,
      "source": 1
    },
    {
      "sampler": 1,
      "source": 2
    },
    {
      "sampler": 2,
      "source": 1
    }
  ]
}
